<?xml version="1.0" standalone="no"?>
<!DOCTYPE svg PUBLIC "-//W3C//DTD SVG 20010904//EN"
 "http://www.w3.org/TR/2001/REC-SVG-20010904/DTD/svg10.dtd">
<svg version="1.0" xmlns="http://www.w3.org/2000/svg"
 width="183.000000pt" height="183.000000pt" viewBox="0 0 183.000000 183.000000"
 preserveAspectRatio="xMidYMid meet">
<metadata>
Created by potrace 1.14, written by Peter Selinger 2001-2017
</metadata>
<g transform="translate(0.000000,183.000000) scale(0.100000,-0.100000)"
fill="#000000" stroke="none">
<path d="M722 1745 c-162 -42 -310 -128 -415 -242 -23 -25 -47 -51 -52 -57
-51 -53 -133 -212 -155 -301 -20 -85 -23 -106 -22 -225 1 -139 4 -180 16 -180
4 0 6 -6 3 -13 -3 -8 3 -32 13 -55 10 -22 16 -43 12 -46 -3 -3 0 -6 7 -6 7 0
10 -4 7 -9 -9 -15 68 -156 119 -219 41 -51 103 -112 114 -112 7 0 9 -4 6 -10
-3 -5 1 -10 9 -10 9 0 16 -4 16 -8 0 -13 140 -100 170 -106 3 -1 10 -4 16 -8
15 -10 94 -36 126 -42 15 -2 31 -7 35 -9 12 -7 131 -19 178 -18 193 6 400 80
521 187 12 11 37 33 56 50 46 40 139 165 171 230 27 54 63 159 72 209 2 17 7
41 10 55 12 51 6 217 -9 290 -62 295 -273 537 -552 634 -94 33 -120 37 -259
41 -101 3 -135 0 -213 -20z"/>
</g>
</svg>
